#N canvas 827 239 527 327 12;
#X obj 626 192 notein;
#X obj 626 506 noteout;
#X msg 374 385 64 127 1;
#X msg 231 385 60 127 1;
#X msg 250 482 62 127 1;
#X obj 193 26 netreceive -u -b 10003;
#X obj 282 66 bng 25 250 50 0 empty empty empty 17 7 0 10 #e4e4e4 #4d4d4d #373737;
#X floatatom 324 66 5 0 0 0 - - - 0;
#X floatatom 219 191 5 0 0 0 - - - 0;
#X obj 193 83 oscparse;
#X obj 193 120 list trim;
#X obj 193 153 route beta alpha;
#X obj 193 325 select 1 0;
#X floatatom 260 191 5 0 0 0 - - - 0;
#X msg 309 385 60 0 1;
#X msg 374 467 62 0 1;
#X obj 234 441 delay 7000;
#X obj 474 88 loadbang;
#X msg 459 385 64 0 1;
#X msg 474 136 48 15 1;
#X obj 366 136 metro 120000;
#X obj 366 168 bng 25 250 50 0 empty empty empty 17 7 0 10 #e4e4e4 #4d4d4d #373737;
#X obj 55 53 tgl 25 0 empty empty empty 17 7 0 10 #e4e4e4 #4d4d4d #373737 0 1;
#X obj 60 385 tgl 25 0 empty empty empty 17 7 0 10 #e4e4e4 #4d4d4d #373737 0 1;
#X obj 55 136 random 1000;
#X obj 55 174 / 1000;
#X obj 55 210 * 0.3;
#X obj 55 248 + 0.2;
#X floatatom 55 281 5 0 0 0 - - - 0;
#X obj 113 317 > 0.3;
#X floatatom 110 361 5 0 0 0 - - - 0;
#X obj 60 419 gate;
#X obj 260 221 > 0.3;
#X floatatom 260 248 5 0 0 0 - - - 0;
#X obj 193 281 gate;
#X obj 27 317 < 0.3;
#X obj 55 96 metro 1000;
#X floatatom 6 358 5 0 0 0 - - - 0;
#X obj 324 221 < 0.3;
#X floatatom 324 248 5 0 0 0 - - - 0;
#X connect 0 0 1 0;
#X connect 0 1 1 1;
#X connect 0 2 1 2;
#X connect 2 0 1 0;
#X connect 2 0 15 0;
#X connect 3 0 1 0;
#X connect 3 0 16 0;
#X connect 4 0 1 0;
#X connect 5 0 6 0;
#X connect 5 0 7 0;
#X connect 5 0 9 0;
#X connect 9 0 10 0;
#X connect 10 0 11 0;
#X connect 11 0 8 0;
#X connect 11 0 34 0;
#X connect 11 1 13 0;
#X connect 12 0 3 0;
#X connect 12 0 18 0;
#X connect 12 1 14 0;
#X connect 12 1 2 0;
#X connect 13 0 32 0;
#X connect 13 0 38 0;
#X connect 14 0 1 0;
#X connect 15 0 1 0;
#X connect 16 0 4 0;
#X connect 17 0 19 0;
#X connect 17 0 20 0;
#X connect 18 0 1 0;
#X connect 19 0 1 0;
#X connect 20 0 21 0;
#X connect 20 0 19 0;
#X connect 22 0 36 0;
#X connect 23 0 31 0;
#X connect 24 0 25 0;
#X connect 25 0 26 0;
#X connect 26 0 27 0;
#X connect 27 0 28 0;
#X connect 28 0 29 0;
#X connect 28 0 35 0;
#X connect 29 0 30 0;
#X connect 30 0 31 1;
#X connect 31 0 12 0;
#X connect 32 0 33 0;
#X connect 33 0 34 1;
#X connect 34 0 12 0;
#X connect 35 0 37 0;
#X connect 36 0 24 0;
#X connect 38 0 39 0;
