#N canvas 827 239 527 327 12;
#X obj 55 53 tgl 25 0 empty empty empty 17 7 0 10 #e4e4e4 #4d4d4d #373737 0 1;
#X obj 55 136 random 1000;
#X obj 55 174 / 1000;
#X obj 55 210 * 0.3;
#X obj 55 248 + 0.2;
#X floatatom 55 281 5 0 0 0 - - - 0;
#X obj 55 96 metro 1000;
#X obj 1006 57 notein;
#X obj 1006 698 noteout;
#X obj 341 47 netreceive -u -b 10003;
#X obj 419 98 bng 25 250 50 0 empty empty empty 17 7 0 10 #e4e4e4 #4d4d4d #373737;
#X floatatom 459 105 5 0 0 0 - - - 0;
#X floatatom 367 212 5 0 0 0 - - - 0;
#X obj 341 104 oscparse;
#X obj 341 141 list trim;
#X obj 341 174 route beta alpha;
#X floatatom 419 214 5 0 0 0 - - - 0;
#X obj 775 109 loadbang;
#X msg 775 174 48 15 1;
#X obj 666 174 metro 120000;
#X obj 666 210 bng 25 250 50 0 empty empty empty 17 7 0 10 #e4e4e4 #4d4d4d #373737;
#X text 353 481 Ruisseau On;
#X text 775 88 Ambiance de base;
#X text 685 152 Loop ambiance;
#X text 341 23 Données de Puredata;
#X obj 341 325 tgl 25 0 empty empty empty 17 7 0 10 #e4e4e4 #4d4d4d #373737 0 1;
#X msg 545 437 60 \$1 1;
#X obj 545 384 * 127;
#X obj 656 384 != 1;
#X obj 341 411 delay_sans_delay 7000;
#X obj 303 448 tgl 25 0 empty empty empty 17 7 0 10 #e4e4e4 #4d4d4d #373737 0 1;
#X obj 341 288 delay_sans_delay 1000;
#X msg 341 503 62 \$1 1;
#X obj 341 448 * 100;
#X text 560 409 Magie;
#X text 353 262 Activation sons principaux après 1s;
#X text 353 383 Activation ruisseau après 7s;
#X text 164 170 Beta: données booléennes;
#X text 164 196 Alpha: données superflues;
#X obj 656 508 random 3;
#X obj 656 551 sel 0 1 2;
#X floatatom 749 551 5 0 0 0 - - - 0;
#X obj 656 460 bng 25 250 50 0 empty empty empty 17 7 0 10 #e4e4e4 #4d4d4d #373737;
#X msg 793 615 64 80 1;
#X floatatom 723 425 5 0 0 0 - - - 0;
#X msg 656 615 72 10 1;
#X obj 245 371 line 0 1000;
#X obj 656 425 sel 1;
#X msg 723 615 65 70 1;
#X msg 250 176;
#X obj 872 384 timer;
#X obj 872 344 t b b;
#X obj 872 300 bng 25 250 50 0 empty empty empty 17 7 0 10 #e4e4e4 #4d4d4d #373737;
#X floatatom 872 425 5 0 0 0 - - - 16;
#X obj 872 263 select 1;
#X obj 872 521 random 2;
#X obj 872 565 sel 0 1;
#X msg 941 615 74 30 1;
#X obj 816 494 bng 25 250 50 0 empty empty empty 17 7 0 10 #e4e4e4 #4d4d4d #373737;
#X obj 872 472 moses 500;
#X msg 872 615 64 30 1;
#X connect 0 0 6 0;
#X connect 1 0 2 0;
#X connect 2 0 3 0;
#X connect 3 0 4 0;
#X connect 4 0 5 0;
#X connect 5 0 31 0;
#X connect 6 0 1 0;
#X connect 7 0 8 0;
#X connect 7 1 8 1;
#X connect 7 2 8 2;
#X connect 9 0 13 0;
#X connect 9 0 10 0 32.................K....DE...vB....QA....B....;
#X connect 9 0 11 0 32.................J....zG...fB....8A...bB....;
#X connect 13 0 14 0;
#X connect 14 0 15 0;
#X connect 15 0 12 0 32.................J....nA...fB....Z....LA....;
#X connect 15 0 31 0;
#X connect 15 0 54 0 48.................J....fI...fB....XB...vC...vDB...7....Lg...fQ....;
#X connect 15 1 16 0 32.................K....TB...vB....k....TA....;
#X connect 17 0 18 0;
#X connect 17 0 19 0 32.................J....T4+++uB....U9+++2A....;
#X connect 18 0 8 0 32.................Y....fI...PF....XB...HY....;
#X connect 19 0 20 0;
#X connect 19 0 18 0 48......................bC.........2....39+++ea....t++++2F...f6++++;
#X connect 25 0 28 0 32.................J....3I...fB....dB...3A....;
#X connect 25 0 27 0 32.................Q....vL...PD....LC...HB....;
#X connect 25 0 29 0;
#X connect 26 0 8 0 64.................WC...TM...v0....UC...bM....GA...WC...vQ...v0....pF...bM...fpA...vC....;
#X connect 27 0 26 0;
#X connect 28 0 44 0;
#X connect 28 0 47 0;
#X connect 29 0 33 0;
#X connect 29 0 30 0 32.................I....r8+++eB....a++++KA....;
#X connect 31 0 25 0;
#X connect 32 0 8 0 32.................TB...Xm....k....1I...3J....;
#X connect 33 0 32 0;
#X connect 39 0 40 0;
#X connect 39 0 41 0 32.................H....zE....B....cA...fA....;
#X connect 40 0 45 0 32.................W.........vE.........zB....;
#X connect 40 1 48 0;
#X connect 40 2 43 0 32.................W....nF...vE....pA...zB....;
#X connect 42 0 39 0;
#X connect 43 0 8 0 32.................j....HK....I....xB...3C....;
#X connect 45 0 8 0 32.................j....rS....I....6D...3C....;
#X connect 47 0 42 0;
#X connect 48 0 8 0 32.................j....fO....I....3C...3C....;
#X connect 50 0 53 0;
#X connect 51 0 50 0;
#X connect 51 1 50 1;
#X connect 52 0 51 0;
#X connect 53 0 59 0;
#X connect 54 0 52 0;
#X connect 55 0 56 0;
#X connect 56 0 60 0;
#X connect 56 1 57 0;
#X connect 57 0 8 0;
#X connect 58 0 55 0;
#X connect 59 0 58 0;
#X connect 60 0 8 0;
