#N canvas 0 50 450 300 12;
#X obj 49 29 inlet;
#X obj 62 492 outlet;
#X obj 49 146 sel 1 0;
#X obj 49 112 change;
#X obj 62 284 realtime;
#X obj 49 69 tgl 25 0 empty empty empty 17 7 0 10 #e4e4e4 #4d4d4d #373737 0 1;
#X msg 86 221 1;
#X msg 123 221 0;
#X obj 62 418 tgl 25 0 empty empty empty 17 7 0 10 #e4e4e4 #4d4d4d #373737 0 1;
#X obj 123 184 t b b;
#X msg 138 284 0;
#X obj 49 184 t b b;
#X obj 62 456 change;
#X obj 62 375 < \$1;
#X obj 83 253 metro 2;
#X connect 0 0 5 0;
#X connect 2 0 11 0;
#X connect 2 1 9 0;
#X connect 3 0 2 0;
#X connect 4 0 13 0;
#X connect 5 0 3 0;
#X connect 6 0 14 0;
#X connect 7 0 14 0;
#X connect 8 0 12 0;
#X connect 9 0 7 0;
#X connect 9 1 10 0;
#X connect 10 0 13 0;
#X connect 11 0 6 0;
#X connect 11 1 4 0;
#X connect 12 0 1 0;
#X connect 13 0 8 0;
#X connect 14 0 4 1;
