#N canvas 827 239 527 327 12;
#X obj 828 321 notein;
#X obj 854 768 noteout;
#X obj 161 635 bng 25 250 50 0 empty empty empty 17 7 0 10 #e4e4e4 #4d4d4d #373737;
#X text 180 577 Loop ambiance;
#X obj 246 104 oscparse;
#X obj 246 137 list trim;
#X obj 161 599 metro 240000;
#X obj 438 104 oscparse;
#X obj 438 143 list trim;
#X obj 608 104 oscparse;
#X obj 608 143 list trim;
#X floatatom 246 223 5 0 0 0 - - - 0;
#X floatatom 438 223 5 0 0 0 - - - 0;
#X floatatom 608 223 5 0 0 0 - - - 0;
#X obj 487 407 tgl 25 0 empty empty empty 17 7 0 10 #e4e4e4 #4d4d4d #373737 0 1;
#X obj 519 104 bng 25 250 50 0 empty empty empty 17 7 0 10 #e4e4e4 #4d4d4d #373737;
#X obj 327 98 bng 25 250 50 0 empty empty empty 17 7 0 10 #e4e4e4 #4d4d4d #373737;
#X obj 719 106 bng 25 250 50 0 empty empty empty 17 7 0 10 #e4e4e4 #4d4d4d #373737;
#X obj 246 68 netreceive -u -b 10008;
#X obj 432 34 netreceive -u -b 10009;
#X obj 608 68 netreceive -u -b 10010;
#X obj 246 181 route beta;
#X obj 438 187 route beta;
#X obj 608 187 route beta;
#X obj 435 321 &&;
#X obj 487 360 &&;
#X obj 435 248 t b f;
#X obj 552 265 t b f;
#X obj 287 500 change;
#X obj 487 487 line;
#X floatatom 562 511 5 0 0 0 - - - 12;
#X obj 523 574 tgl 25 0 empty empty empty 17 7 0 10 #e4e4e4 #4d4d4d #373737 0 1;
#X msg 421 661 48 0 1;
#X obj 283 546 select 1 0;
#X msg 283 615 48 80 1;
#X msg 487 449 \$1 5000;
#X obj 487 531 > 0.5;
#X connect 0 0 1 0;
#X connect 0 1 1 1;
#X connect 0 2 1 2;
#X connect 4 0 5 0;
#X connect 5 0 21 0;
#X connect 6 0 2 0;
#X connect 6 0 34 0 48......................bC.........2....39+++ea....t++++2F...f6++++;
#X connect 7 0 8 0;
#X connect 8 0 22 0;
#X connect 9 0 10 0;
#X connect 10 0 23 0;
#X connect 11 0 24 0;
#X connect 12 0 26 0;
#X connect 13 0 27 0;
#X connect 14 0 35 0;
#X connect 18 0 4 0;
#X connect 18 0 16 0;
#X connect 19 0 7 0;
#X connect 19 0 15 0;
#X connect 20 0 9 0;
#X connect 20 0 17 0;
#X connect 21 0 11 0;
#X connect 22 0 12 0;
#X connect 23 0 13 0;
#X connect 24 0 25 0;
#X connect 25 0 14 0;
#X connect 26 0 24 0;
#X connect 26 1 24 1;
#X connect 27 0 24 0;
#X connect 27 1 25 1;
#X connect 28 0 33 0;
#X connect 29 0 30 0;
#X connect 29 0 36 0;
#X connect 32 0 1 0;
#X connect 33 0 34 0;
#X connect 33 1 32 0;
#X connect 34 0 1 0 32.................mB...7c...vo....eG....F....;
#X connect 35 0 29 0;
#X connect 36 0 31 0;
#X connect 36 0 28 0;
