#N canvas 827 239 527 327 12;
#X obj 365 56 notein;
#X obj 365 235 noteout;
#X obj 195 97 loadbang;
#X obj 86 162 metro 120000;
#X obj 86 198 bng 25 250 50 0 empty empty empty 17 7 0 10 #e4e4e4 #4d4d4d #373737;
#X text 195 76 Ambiance de base;
#X text 105 140 Loop ambiance;
#X msg 195 162 48 17 1;
#X connect 0 0 1 0;
#X connect 0 1 1 1;
#X connect 0 2 1 2;
#X connect 2 0 7 0;
#X connect 2 0 3 0 32.................J....T4+++uB....U9+++2A....;
#X connect 3 0 4 0;
#X connect 3 0 7 0 48......................bC.........2....39+++ea....t++++2F...f6++++;
#X connect 7 0 1 0 32.................Y....fI...PF....XB...HY....;
