#N canvas 827 239 527 327 12;
#X obj 1225 32 notein;
#X obj 1225 673 noteout;
#X obj 221 105 bng 25 250 50 0 empty empty empty 17 7 0 10 #e4e4e4 #4d4d4d #373737;
#X floatatom 261 112 5 0 0 0 - - - 0;
#X floatatom 169 219 5 0 0 0 - - - 0;
#X obj 143 111 oscparse;
#X obj 143 148 list trim;
#X obj 143 181 route beta alpha;
#X floatatom 221 221 5 0 0 0 - - - 0;
#X text 143 30 Données de Puredata;
#X obj 143 332 tgl 25 0 empty empty empty 17 7 0 10 #e4e4e4 #4d4d4d #373737 0 1;
#X obj 458 391 != 1;
#X obj 143 418 delay_sans_delay 7000;
#X obj 105 455 tgl 25 0 empty empty empty 17 7 0 10 #e4e4e4 #4d4d4d #373737 0 1;
#X obj 143 295 delay_sans_delay 1000;
#X text 668 606 Grenouille;
#X text 155 269 Activation sons principaux après 1s;
#X text 155 390 Activation ruisseau après 7s;
#X obj 458 515 random 3;
#X obj 458 558 sel 0 1 2;
#X floatatom 551 558 5 0 0 0 - - - 0;
#X obj 458 467 bng 25 250 50 0 empty empty empty 17 7 0 10 #e4e4e4 #4d4d4d #373737;
#X floatatom 525 432 5 0 0 0 - - - 0;
#X obj 458 432 sel 1;
#X obj 743 391 timer;
#X obj 743 351 t b b;
#X obj 743 307 bng 25 250 50 0 empty empty empty 17 7 0 10 #e4e4e4 #4d4d4d #373737;
#X floatatom 743 432 5 0 0 0 - - - 16;
#X obj 743 270 select 1;
#X obj 709 504 bng 25 250 50 0 empty empty empty 17 7 0 10 #e4e4e4 #4d4d4d #373737;
#X obj 743 479 moses 500;
#X obj 143 54 netreceive -u -b 10007;
#X text 362 416 Magie 2;
#X text 155 488 Oiseaux;
#X msg 143 510 62 \$1 1;
#X msg 347 444 60 \$1 1;
#X obj 143 455 * 127;
#X msg 743 622 74 127 1;
#X obj 743 528 random 4;
#X obj 743 572 sel 0 1 2 3;
#X text 474 600 Grenouille;
#X text 574 600 Libellule;
#X msg 560 622 65 127 1;
#X msg 458 622 67 80 1;
#X msg 654 622 64 100 1;
#X msg 956 622 77 80 1;
#X msg 887 622 76 127 1;
#X msg 812 622 72 80 1;
#X obj 347 391 * 60;
#X floatatom 947 380 5 0 0 0 - - - 0;
#X msg 940 444 86 60 1;
#X obj 854 270 bng 25 250 50 0 empty empty empty 17 7 0 10 #e4e4e4 #4d4d4d #373737;
#X text 955 421 Pad;
#X msg 854 444 88 50 1;
#X text 868 421 Echo;
#X text 1039 421 Pad;
#X msg 1024 444 89 60 1;
#X obj 854 339 random 3;
#X obj 854 380 sel 0 1 2;
#X connect 0 0 1 0;
#X connect 0 1 1 1;
#X connect 0 2 1 2;
#X connect 5 0 6 0;
#X connect 6 0 7 0;
#X connect 7 0 4 0 32.................J....nA...fB....Z....LA....;
#X connect 7 0 14 0;
#X connect 7 0 28 0 48.................J....fI...fB....XB...vC....VB...7....fk...fQ....;
#X connect 7 0 51 0;
#X connect 7 1 8 0 32.................K....TB...vB....k....TA....;
#X connect 10 0 11 0 32.................J....3I...fB....dB...3A....;
#X connect 10 0 12 0;
#X connect 10 0 48 0 32.................Q....vL...PD....LC...HB....;
#X connect 11 0 22 0;
#X connect 11 0 23 0;
#X connect 12 0 13 0 32.................I....r8+++eB....a++++KA....;
#X connect 12 0 36 0;
#X connect 14 0 10 0;
#X connect 18 0 19 0;
#X connect 18 0 20 0 32.................H....zE....B....cA...fA....;
#X connect 19 0 43 0 32.................W.........vE.........zB....;
#X connect 19 1 42 0;
#X connect 19 2 44 0 32.................W....nF...vE....pA...zB....;
#X connect 21 0 18 0;
#X connect 23 0 21 0;
#X connect 24 0 27 0;
#X connect 25 0 24 0;
#X connect 25 1 24 1;
#X connect 26 0 25 0;
#X connect 27 0 30 0;
#X connect 28 0 26 0;
#X connect 29 0 38 0;
#X connect 30 0 29 0;
#X connect 31 0 5 0;
#X connect 31 0 2 0 32.................K....DE...vB....QA....B....;
#X connect 31 0 3 0 32.................J....zG...fB....8A...bB....;
#X connect 34 0 1 0;
#X connect 35 0 1 0;
#X connect 36 0 34 0;
#X connect 37 0 1 0;
#X connect 38 0 39 0;
#X connect 39 0 37 0;
#X connect 39 1 47 0;
#X connect 39 2 46 0;
#X connect 39 3 45 0;
#X connect 42 0 1 0;
#X connect 43 0 1 0;
#X connect 44 0 1 0;
#X connect 45 0 1 0;
#X connect 46 0 1 0;
#X connect 47 0 1 0;
#X connect 48 0 35 0;
#X connect 50 0 1 0;
#X connect 51 0 57 0;
#X connect 53 0 1 0;
#X connect 56 0 1 0;
#X connect 57 0 49 0 32.................H....zE....B....cA...fA....;
#X connect 57 0 58 0;
#X connect 58 0 53 0 32.................W.........vE.........zB....;
#X connect 58 1 50 0 32.................O....bD...vC....GA...zB....;
#X connect 58 2 56 0;
