#N canvas 827 239 527 327 12;
#X obj 1237 52 notein;
#X obj 1237 686 noteout;
#X obj 193 26 netreceive -u -b 10003;
#X obj 271 77 bng 25 250 50 0 empty empty empty 17 7 0 10 #e4e4e4 #4d4d4d #373737;
#X floatatom 311 84 5 0 0 0 - - - 0;
#X floatatom 219 191 5 0 0 0 - - - 0;
#X obj 193 83 oscparse;
#X obj 193 120 list trim;
#X obj 193 153 route beta alpha;
#X floatatom 271 193 5 0 0 0 - - - 0;
#X text 205 460 Ruisseau On;
#X text 193 2 Données de Puredata;
#X obj 193 304 tgl 25 0 empty empty empty 17 7 0 10 #e4e4e4 #4d4d4d #373737 0 1;
#X msg 397 416 60 \$1 1;
#X obj 397 363 * 127;
#X obj 508 363 != 1;
#X obj 193 390 delay_sans_delay 7000;
#X obj 155 427 tgl 25 0 empty empty empty 17 7 0 10 #e4e4e4 #4d4d4d #373737 0 1;
#X obj 193 266 delay_sans_delay 1000;
#X msg 193 482 62 \$1 1;
#X text 412 388 Magie;
#X text 684 571 Grenouille;
#X text 205 241 Activation sons principaux après 1s;
#X text 205 362 Activation ruisseau après 7s;
#X text 16 149 Beta: données booléennes;
#X text 16 175 Alpha: données superflues;
#X obj 508 487 random 3;
#X obj 508 530 sel 0 1 2;
#X floatatom 601 530 5 0 0 0 - - - 0;
#X obj 508 439 bng 25 250 50 0 empty empty empty 17 7 0 10 #e4e4e4 #4d4d4d #373737;
#X msg 670 594 64 80 1;
#X floatatom 575 404 5 0 0 0 - - - 0;
#X obj 97 350 line 0 1000;
#X obj 508 404 sel 1;
#X obj 793 363 timer;
#X obj 793 323 t b b;
#X obj 793 279 bng 25 250 50 0 empty empty empty 17 7 0 10 #e4e4e4 #4d4d4d #373737;
#X floatatom 793 404 5 0 0 0 - - - 16;
#X obj 793 242 select 1;
#X obj 759 476 bng 25 250 50 0 empty empty empty 17 7 0 10 #e4e4e4 #4d4d4d #373737;
#X obj 793 451 moses 500;
#X text 609 571 Cloche;
#X text 522 571 Hibou;
#X obj 793 500 random 4;
#X obj 793 544 sel 0 1 2 3;
#X obj 193 427 * 127;
#X msg 508 594 67 20 1;
#X msg 594 594 65 60 1;
#X floatatom 1011 353 5 0 0 0 - - - 0;
#X msg 1004 417 86 60 1;
#X msg 918 417 84 30 1;
#X obj 918 226 bng 25 250 50 0 empty empty empty 17 7 0 10 #e4e4e4 #4d4d4d #373737;
#X text 932 394 Bambo;
#X text 1019 394 Echo;
#X msg 1077 417 88 60 1;
#X text 1092 394 gardenchim;
#X msg 1166 417 89 60 1;
#X obj 918 353 sel 0 1 2 3;
#X obj 918 310 random 4;
#X text 1181 394 pad-meditation 2;
#X msg 940 594 76 120 1;
#X msg 793 594 74 120 1;
#X msg 862 594 72 120 1;
#X msg 1012 594 77 120 1;
#X connect 0 0 1 0;
#X connect 0 1 1 1;
#X connect 0 2 1 2;
#X connect 2 0 6 0;
#X connect 2 0 3 0 32.................K....DE...vB....QA....B....;
#X connect 2 0 4 0 32.................J....zG...fB....8A...bB....;
#X connect 6 0 7 0;
#X connect 7 0 8 0;
#X connect 8 0 5 0 32.................J....nA...fB....Z....LA....;
#X connect 8 0 18 0;
#X connect 8 0 38 0;
#X connect 8 0 51 0;
#X connect 8 1 9 0 32.................K....TB...vB....k....TA....;
#X connect 12 0 15 0 32.................J....3I...fB....dB...3A....;
#X connect 12 0 14 0 32.................Q....vL...PD....LC...HB....;
#X connect 12 0 16 0;
#X connect 13 0 1 0 64.................WC...TM...v0....UC...bM....GA...WC...vQ...v0....pF...bM...fpA...vC....;
#X connect 14 0 13 0;
#X connect 15 0 31 0;
#X connect 15 0 33 0;
#X connect 16 0 17 0 32.................I....r8+++eB....a++++KA....;
#X connect 16 0 45 0;
#X connect 18 0 12 0;
#X connect 19 0 1 0 32.................TB...Xm....k....1I...3J....;
#X connect 26 0 27 0;
#X connect 26 0 28 0 32.................H....zE....B....cA...fA....;
#X connect 27 0 46 0 32.................W.........vE.........zB....;
#X connect 27 1 47 0 32.................O....bD...vC....GA...zB....;
#X connect 27 2 30 0 32.................R....LH...fD....CB...zB....;
#X connect 29 0 26 0;
#X connect 30 0 1 0 32.................j....HK....I....xB...3C....;
#X connect 33 0 29 0;
#X connect 34 0 37 0;
#X connect 35 0 34 0;
#X connect 35 1 34 1;
#X connect 36 0 35 0;
#X connect 37 0 40 0;
#X connect 38 0 36 0;
#X connect 39 0 43 0;
#X connect 40 0 39 0;
#X connect 43 0 44 0;
#X connect 44 0 61 0;
#X connect 44 1 62 0;
#X connect 44 2 60 0;
#X connect 44 3 63 0;
#X connect 45 0 19 0;
#X connect 46 0 1 0 32.................j....rS....I....6D...3C....;
#X connect 47 0 1 0 32.................j....fO....I....3C...3C....;
#X connect 49 0 1 0;
#X connect 50 0 1 0;
#X connect 51 0 58 0;
#X connect 54 0 1 0;
#X connect 56 0 1 0;
#X connect 57 0 50 0 32.................W.........vE.........zB....;
#X connect 57 1 49 0 32.................O....bD...vC....GA...zB....;
#X connect 57 2 54 0;
#X connect 57 3 56 0;
#X connect 58 0 48 0 32.................H....zE....B....cA...fA....;
#X connect 58 0 57 0;
#X connect 60 0 1 0;
#X connect 61 0 1 0;
#X connect 62 0 1 0;
#X connect 63 0 1 0;
