#N canvas 827 239 527 327 12;
#X obj 626 26 notein;
#X obj 626 557 noteout;
#X msg 408 392 64 127 1;
#X msg 193 392 60 127 1;
#X msg 193 524 62 127 1;
#X obj 193 26 netreceive -u -b 10003;
#X obj 271 77 bng 25 250 50 0 empty empty empty 17 7 0 10 #e4e4e4 #4d4d4d #373737;
#X floatatom 311 84 5 0 0 0 - - - 0;
#X floatatom 219 191 5 0 0 0 - - - 0;
#X obj 193 83 oscparse;
#X obj 193 120 list trim;
#X obj 193 153 route beta alpha;
#X obj 193 325 select 1 0;
#X floatatom 271 193 5 0 0 0 - - - 0;
#X msg 302 392 60 0 1;
#X msg 408 524 62 0 1;
#X obj 193 461 delay 7000;
#X obj 474 88 loadbang;
#X msg 528 392 64 0 1;
#X msg 474 153 48 15 1;
#X obj 365 153 metro 120000;
#X obj 365 189 bng 25 250 50 0 empty empty empty 17 7 0 10 #e4e4e4 #4d4d4d #373737;
#X obj 271 235 > 0.3;
#X obj 324 235 < 0.3;
#X floatatom 271 263 5 0 0 0 - - - 0;
#X floatatom 324 263 5 0 0 0 - - - 0;
#X obj 193 292 gate;
#X text 211 370 Magie On;
#X text 318 370 Magie Off;
#X text 423 370 Grenouille On;
#X text 543 370 Grenouille Off;
#X text 211 499 Ruisseau On;
#X text 423 499 Ruisseau Off;
#X text 474 67 Ambiance de base;
#X text 384 131 Loop ambiance;
#X text 193 2 Données de Puredata;
#X connect 0 0 1 0;
#X connect 0 1 1 1;
#X connect 0 2 1 2;
#X connect 2 0 15 0 32.................b....78+++OG....e++++iC....;
#X connect 2 0 1 0 32.................f....nM....H....ZC...7E....;
#X connect 3 0 16 0;
#X connect 3 0 1 0 32.................f....Da....H....wF...7E....;
#X connect 4 0 1 0 48.................I....jM...PB....YC...j....PrA...I....Da...fC....;
#X connect 5 0 9 0;
#X connect 5 0 6 0 32.................K....DE...vB....QA....B....;
#X connect 5 0 7 0 32.................J....zG...fB....8A...bB....;
#X connect 9 0 10 0;
#X connect 10 0 11 0;
#X connect 11 0 26 0;
#X connect 11 0 8 0 32.................J....nA...fB....Z....LA....;
#X connect 11 1 13 0 32.................K....TB...vB....k....TA....;
#X connect 12 0 3 0;
#X connect 12 0 18 0 32.................P....7S....D....+D....C....;
#X connect 12 1 14 0 32.................P....jE....D....YA....C....;
#X connect 12 1 2 0 32.................P....LL....D....CC....C....;
#X connect 13 0 22 0 32.................L..........C.........fA....;
#X connect 13 0 23 0 32.................L....TC....C....0....fA....;
#X connect 14 0 1 0 32.................f....PT....H....DE...7E....;
#X connect 15 0 1 0 32.................J....nM...fB....ZC...3.....;
#X connect 16 0 4 0;
#X connect 17 0 19 0;
#X connect 17 0 20 0 32.................J....T4+++uB....U9+++2A....;
#X connect 18 0 1 0 32.................f....HF....H....hA...7E....;
#X connect 19 0 1 0 32.................Y....fI...PF....XB...HY....;
#X connect 20 0 21 0;
#X connect 20 0 19 0 48......................bC.........2....39+++ea....t++++2F...f6++++;
#X connect 22 0 24 0;
#X connect 23 0 25 0;
#X connect 24 0 26 1 32.................F....76+++uA....+9+++u.....;
#X connect 26 0 12 0;
