#N canvas 827 239 527 327 12;
#X obj 1202 48 notein;
#X obj 1202 689 noteout;
#X obj 258 102 bng 25 250 50 0 empty empty empty 17 7 0 10 #e4e4e4 #4d4d4d #373737;
#X floatatom 298 109 5 0 0 0 - - - 0;
#X floatatom 206 216 5 0 0 0 - - - 0;
#X obj 180 108 oscparse;
#X obj 180 145 list trim;
#X obj 180 178 route beta alpha;
#X floatatom 258 218 5 0 0 0 - - - 0;
#X text 180 27 Données de Puredata;
#X obj 180 329 tgl 25 0 empty empty empty 17 7 0 10 #e4e4e4 #4d4d4d #373737 0 1;
#X obj 495 388 != 1;
#X obj 180 415 delay_sans_delay 7000;
#X obj 142 452 tgl 25 0 empty empty empty 17 7 0 10 #e4e4e4 #4d4d4d #373737 0 1;
#X obj 180 292 delay_sans_delay 1000;
#X text 686 603 Grenouille;
#X text 192 266 Activation sons principaux après 1s;
#X text 192 387 Activation ruisseau après 7s;
#X obj 495 512 random 3;
#X obj 495 555 sel 0 1 2;
#X floatatom 588 555 5 0 0 0 - - - 0;
#X obj 495 464 bng 25 250 50 0 empty empty empty 17 7 0 10 #e4e4e4 #4d4d4d #373737;
#X floatatom 562 429 5 0 0 0 - - - 0;
#X obj 495 429 sel 1;
#X msg 588 619 65 70 1;
#X obj 780 388 timer;
#X obj 780 348 t b b;
#X obj 780 304 bng 25 250 50 0 empty empty empty 17 7 0 10 #e4e4e4 #4d4d4d #373737;
#X floatatom 780 429 5 0 0 0 - - - 16;
#X obj 780 267 select 1;
#X obj 746 501 bng 25 250 50 0 empty empty empty 17 7 0 10 #e4e4e4 #4d4d4d #373737;
#X obj 780 476 moses 500;
#X msg 780 619 74 30 1;
#X obj 180 51 netreceive -u -b 10005;
#X text 192 485 Méditation;
#X text 399 413 Tambour;
#X msg 384 441 60 \$1 1;
#X msg 180 507 62 \$1 1;
#X obj 384 388 * 40;
#X obj 780 525 random 4;
#X obj 780 569 sel 0 1 2 3;
#X msg 495 619 67 80 1;
#X text 601 596 Feuilles;
#X text 506 603 Vent;
#X obj 180 452 * 40;
#X msg 672 619 64 10 1;
#X msg 849 619 72 20 1;
#X msg 916 619 76 60 1;
#X msg 985 619 77 30 1;
#X floatatom 1034 376 5 0 0 0 - - - 0;
#X obj 941 267 bng 25 250 50 0 empty empty empty 17 7 0 10 #e4e4e4 #4d4d4d #373737;
#X obj 941 376 sel 0 1;
#X obj 941 333 random 1;
#X msg 941 476 91 25 1;
#X text 954 454 flute;
#X msg 1010 476 92 25 1;
#X text 1032 454 flute célestiale;
#X connect 0 0 1 0;
#X connect 0 1 1 1;
#X connect 0 2 1 2;
#X connect 5 0 6 0;
#X connect 6 0 7 0;
#X connect 7 0 4 0 32.................J....nA...fB....Z....LA....;
#X connect 7 0 14 0;
#X connect 7 0 29 0 48.................J....fI...fB....XB...vC...vDB...7....Lg...fQ....;
#X connect 7 0 50 0;
#X connect 7 1 8 0 32.................K....TB...vB....k....TA....;
#X connect 10 0 11 0 32.................J....3I...fB....dB...3A....;
#X connect 10 0 12 0;
#X connect 10 0 38 0 32.................Q....vL...PD....LC...HB....;
#X connect 11 0 22 0;
#X connect 11 0 23 0;
#X connect 12 0 13 0 32.................I....r8+++eB....a++++KA....;
#X connect 12 0 44 0;
#X connect 14 0 10 0;
#X connect 18 0 19 0;
#X connect 18 0 20 0 32.................H....zE....B....cA...fA....;
#X connect 19 0 41 0 32.................W.........vE.........zB....;
#X connect 19 1 24 0;
#X connect 19 2 45 0 32.................W....nF...vE....pA...zB....;
#X connect 21 0 18 0;
#X connect 23 0 21 0;
#X connect 24 0 1 0;
#X connect 25 0 28 0;
#X connect 26 0 25 0;
#X connect 26 1 25 1;
#X connect 27 0 26 0;
#X connect 28 0 31 0;
#X connect 29 0 27 0;
#X connect 30 0 39 0;
#X connect 31 0 30 0;
#X connect 32 0 1 0;
#X connect 33 0 5 0;
#X connect 33 0 2 0 32.................K....DE...vB....QA....B....;
#X connect 33 0 3 0 32.................J....zG...fB....8A...bB....;
#X connect 36 0 1 0;
#X connect 37 0 1 0;
#X connect 38 0 36 0;
#X connect 39 0 40 0;
#X connect 40 0 32 0;
#X connect 40 1 46 0;
#X connect 40 2 47 0;
#X connect 40 3 48 0;
#X connect 41 0 1 0;
#X connect 44 0 37 0;
#X connect 45 0 1 0;
#X connect 46 0 1 0;
#X connect 47 0 1 0;
#X connect 48 0 1 0;
#X connect 50 0 52 0;
#X connect 51 0 53 0 32.................W.........vE.........zB....;
#X connect 51 1 55 0;
#X connect 52 0 49 0 32.................H....zE....B....cA...fA....;
#X connect 52 0 51 0;
#X connect 53 0 1 0;
#X connect 55 0 1 0;
