#N canvas 827 239 527 327 12;
#X obj 337 196 notein;
#X obj 337 375 noteout;
#X obj 137 293 metro 120000;
#X obj 137 329 bng 25 250 50 0 empty empty empty 17 7 0 10 #e4e4e4 #4d4d4d #373737;
#X text 156 271 Loop ambiance;
#X msg 246 293 48 17 1;
#X obj 246 127 netreceive -u -b 10;
#X obj 246 163 oscparse;
#X obj 246 196 list trim;
#X connect 0 0 1 0;
#X connect 0 1 1 1;
#X connect 0 2 1 2;
#X connect 2 0 3 0;
#X connect 2 0 5 0 48......................bC.........2....39+++ea....t++++2F...f6++++;
#X connect 5 0 1 0 32.................Y....fI...PF....XB...HY....;
#X connect 6 0 7 0;
#X connect 7 0 8 0;
#X connect 8 0 5 0;
