#N canvas 827 239 527 327 12;
#X obj 455 158 notein;
#X obj 455 472 noteout;
#X obj 198 154 bng 25 250 50 0 empty empty empty 17 7 0 10 #e4e4e4 #4d4d4d #373737;
#X msg 386 190 64 127 1;
#X obj 198 229 bng 25 250 50 0 empty empty empty 17 7 0 10 #e4e4e4 #4d4d4d #373737;
#X msg 307 190 60 127 1;
#X msg 198 267 62 127 1;
#X obj 198 201 delay 7000;
#X obj 193 86 moses 0.3;
#X obj 193 26 netreceive -u -b 10003;
#X obj 219 51 bng 25 250 50 0 empty empty empty 17 7 0 10 #e4e4e4 #4d4d4d #373737;
#X connect 0 0 1 0;
#X connect 0 1 1 1;
#X connect 0 2 1 2;
#X connect 2 0 5 0;
#X connect 2 0 7 0;
#X connect 3 0 1 0;
#X connect 4 0 6 0;
#X connect 5 0 1 0;
#X connect 6 0 1 0;
#X connect 7 0 4 0;
#X connect 8 1 2 0;
#X connect 9 0 8 0;
#X connect 9 0 10 0;
