#N canvas 827 239 527 327 12;
#X obj 626 192 notein;
#X obj 626 506 noteout;
#X msg 374 385 64 127 1;
#X msg 231 385 60 127 1;
#X msg 250 482 62 127 1;
#X obj 193 26 netreceive -u -b 10003;
#X obj 282 66 bng 25 250 50 0 empty empty empty 17 7 0 10 #e4e4e4 #4d4d4d #373737;
#X floatatom 324 66 5 0 0 0 - - - 0;
#X floatatom 219 191 5 0 0 0 - - - 0;
#X obj 193 83 oscparse;
#X obj 193 120 list trim;
#X obj 193 153 route beta alpha;
#X obj 193 325 select 1 0;
#X floatatom 260 191 5 0 0 0 - - - 0;
#X msg 309 385 60 0 1;
#X msg 374 467 62 0 1;
#X obj 234 441 delay 7000;
#X obj 474 88 loadbang;
#X msg 459 385 64 0 1;
#X msg 474 136 48 15 1;
#X obj 366 136 metro 120000;
#X obj 366 168 bng 25 250 50 0 empty empty empty 17 7 0 10 #e4e4e4 #4d4d4d #373737;
#X connect 0 0 1 0;
#X connect 0 1 1 1;
#X connect 0 2 1 2;
#X connect 2 0 1 0;
#X connect 2 0 15 0;
#X connect 3 0 1 0;
#X connect 3 0 16 0;
#X connect 4 0 1 0;
#X connect 5 0 6 0;
#X connect 5 0 7 0;
#X connect 5 0 9 0;
#X connect 9 0 10 0;
#X connect 10 0 11 0;
#X connect 11 0 8 0;
#X connect 11 0 12 0;
#X connect 11 1 13 0;
#X connect 12 0 3 0;
#X connect 12 0 18 0;
#X connect 12 1 14 0;
#X connect 12 1 2 0;
#X connect 14 0 1 0;
#X connect 15 0 1 0;
#X connect 16 0 4 0;
#X connect 17 0 19 0;
#X connect 17 0 20 0;
#X connect 18 0 1 0;
#X connect 19 0 1 0;
#X connect 20 0 21 0;
#X connect 20 0 19 0;
