#N canvas 827 239 527 327 12;
#X obj 923 36 notein;
#X obj 923 677 noteout;
#X obj 193 26 netreceive -u -b 10003;
#X obj 271 77 bng 25 250 50 0 empty empty empty 17 7 0 10 #e4e4e4 #4d4d4d #373737;
#X floatatom 311 84 5 0 0 0 - - - 0;
#X floatatom 219 191 5 0 0 0 - - - 0;
#X obj 193 83 oscparse;
#X obj 193 120 list trim;
#X obj 193 153 route beta alpha;
#X floatatom 271 193 5 0 0 0 - - - 0;
#X obj 627 88 loadbang;
#X msg 627 153 48 15 1;
#X obj 518 153 metro 120000;
#X obj 518 189 bng 25 250 50 0 empty empty empty 17 7 0 10 #e4e4e4 #4d4d4d #373737;
#X text 205 460 Ruisseau On;
#X text 627 67 Ambiance de base;
#X text 537 131 Loop ambiance;
#X text 193 2 Données de Puredata;
#X obj 193 304 tgl 25 0 empty empty empty 17 7 0 10 #e4e4e4 #4d4d4d #373737 0 1;
#X msg 397 416 60 \$1 1;
#X obj 397 363 * 127;
#X obj 508 363 != 1;
#X obj 193 390 delay_sans_delay 7000;
#X obj 155 427 tgl 25 0 empty empty empty 17 7 0 10 #e4e4e4 #4d4d4d #373737 0 1;
#X obj 193 267 delay_sans_delay 1000;
#X msg 193 482 62 \$1 1;
#X obj 193 427 * 100;
#X text 412 388 Magie;
#X text 659 578 Grenouille;
#X text 205 241 Activation sons principaux après 1s;
#X text 205 362 Activation ruisseau après 7s;
#X text 16 149 Beta: données booléennes;
#X text 16 175 Alpha: données superflues;
#X obj 508 487 random 3;
#X obj 508 530 sel 0 1 2;
#X floatatom 601 530 5 0 0 0 - - - 0;
#X obj 508 439 bng 25 250 50 0 empty empty empty 17 7 0 10 #e4e4e4 #4d4d4d #373737;
#X msg 645 594 64 80 1;
#X floatatom 575 404 5 0 0 0 - - - 0;
#X msg 508 594 72 10 1;
#X obj 97 350 line 0 1000;
#X obj 508 404 sel 1;
#X msg 575 594 65 70 1;
#X obj 793 363 timer;
#X obj 793 323 t b b;
#X obj 793 279 bng 25 250 50 0 empty empty empty 17 7 0 10 #e4e4e4 #4d4d4d #373737;
#X floatatom 793 404 5 0 0 0 - - - 16;
#X obj 793 242 select 1;
#X obj 793 500 random 2;
#X obj 793 544 sel 0 1;
#X obj 759 476 bng 25 250 50 0 empty empty empty 17 7 0 10 #e4e4e4 #4d4d4d #373737;
#X obj 793 451 moses 500;
#X msg 862 594 72 10 1;
#X msg 793 594 74 30 1;
#X obj 1170 77 bng 25 250 50 0 empty empty empty 17 7 0 10 #e4e4e4 #4d4d4d #373737;
#X floatatom 1210 84 5 0 0 0 - - - 0;
#X floatatom 1118 191 5 0 0 0 - - - 0;
#X obj 1092 83 oscparse;
#X obj 1092 120 list trim;
#X obj 1092 153 route beta alpha;
#X floatatom 1170 193 5 0 0 0 - - - 0;
#X text 1092 2 Données de Puredata;
#X obj 1092 304 tgl 25 0 empty empty empty 17 7 0 10 #e4e4e4 #4d4d4d #373737 0 1;
#X obj 1407 363 != 1;
#X obj 1092 390 delay_sans_delay 7000;
#X obj 1054 427 tgl 25 0 empty empty empty 17 7 0 10 #e4e4e4 #4d4d4d #373737 0 1;
#X obj 1092 267 delay_sans_delay 1000;
#X obj 1092 427 * 100;
#X text 1558 578 Grenouille;
#X text 1104 241 Activation sons principaux après 1s;
#X text 1104 362 Activation ruisseau après 7s;
#X obj 1407 487 random 3;
#X obj 1407 530 sel 0 1 2;
#X floatatom 1500 530 5 0 0 0 - - - 0;
#X obj 1407 439 bng 25 250 50 0 empty empty empty 17 7 0 10 #e4e4e4 #4d4d4d #373737;
#X msg 1544 594 64 80 1;
#X floatatom 1474 404 5 0 0 0 - - - 0;
#X msg 1407 594 72 10 1;
#X obj 1407 404 sel 1;
#X msg 1474 594 65 70 1;
#X obj 1692 363 timer;
#X obj 1692 323 t b b;
#X obj 1692 279 bng 25 250 50 0 empty empty empty 17 7 0 10 #e4e4e4 #4d4d4d #373737;
#X floatatom 1692 404 5 0 0 0 - - - 16;
#X obj 1692 242 select 1;
#X obj 1692 500 random 2;
#X obj 1692 544 sel 0 1;
#X obj 1658 476 bng 25 250 50 0 empty empty empty 17 7 0 10 #e4e4e4 #4d4d4d #373737;
#X obj 1692 451 moses 500;
#X msg 1761 594 72 10 1;
#X msg 1692 594 74 30 1;
#X obj 1092 26 netreceive -u -b 10005;
#X msg 1296 416 84 \$1 1;
#X msg 1092 482 86 \$1 1;
#X text 1104 460 Méditation;
#X text 1311 388 Tambour;
#X obj 2023 77 bng 25 250 50 0 empty empty empty 17 7 0 10 #e4e4e4 #4d4d4d #373737;
#X floatatom 2063 84 5 0 0 0 - - - 0;
#X floatatom 1971 191 5 0 0 0 - - - 0;
#X obj 1945 83 oscparse;
#X obj 1945 120 list trim;
#X obj 1945 153 route beta alpha;
#X floatatom 2023 193 5 0 0 0 - - - 0;
#X text 1945 2 Données de Puredata;
#X obj 1945 304 tgl 25 0 empty empty empty 17 7 0 10 #e4e4e4 #4d4d4d #373737 0 1;
#X obj 2260 363 != 1;
#X obj 1945 390 delay_sans_delay 7000;
#X obj 1907 427 tgl 25 0 empty empty empty 17 7 0 10 #e4e4e4 #4d4d4d #373737 0 1;
#X obj 1945 267 delay_sans_delay 1000;
#X obj 1945 427 * 100;
#X text 2411 578 Grenouille;
#X text 1957 241 Activation sons principaux après 1s;
#X text 1957 362 Activation ruisseau après 7s;
#X obj 2260 487 random 3;
#X obj 2260 530 sel 0 1 2;
#X floatatom 2353 530 5 0 0 0 - - - 0;
#X obj 2260 439 bng 25 250 50 0 empty empty empty 17 7 0 10 #e4e4e4 #4d4d4d #373737;
#X msg 2397 594 64 80 1;
#X floatatom 2327 404 5 0 0 0 - - - 0;
#X msg 2260 594 72 10 1;
#X obj 2260 404 sel 1;
#X msg 2327 594 65 70 1;
#X obj 2545 363 timer;
#X obj 2545 323 t b b;
#X obj 2545 279 bng 25 250 50 0 empty empty empty 17 7 0 10 #e4e4e4 #4d4d4d #373737;
#X floatatom 2545 404 5 0 0 0 - - - 16;
#X obj 2545 242 select 1;
#X obj 2545 500 random 2;
#X obj 2545 544 sel 0 1;
#X obj 2511 476 bng 25 250 50 0 empty empty empty 17 7 0 10 #e4e4e4 #4d4d4d #373737;
#X obj 2545 451 moses 500;
#X msg 2614 594 72 10 1;
#X msg 2545 594 74 30 1;
#X msg 2149 416 96 \$1 1;
#X msg 1945 482 98 \$1 1;
#X obj 1945 26 netreceive -u -b 10007;
#X obj 1296 363 * 40;
#X obj 2149 363 * 80;
#X text 2164 388 Magie 2;
#X text 1957 460 Oiseaux;
#X connect 0 0 1 0;
#X connect 0 1 1 1;
#X connect 0 2 1 2;
#X connect 2 0 6 0;
#X connect 2 0 3 0 32.................K....DE...vB....QA....B....;
#X connect 2 0 4 0 32.................J....zG...fB....8A...bB....;
#X connect 6 0 7 0;
#X connect 7 0 8 0;
#X connect 8 0 5 0 32.................J....nA...fB....Z....LA....;
#X connect 8 0 24 0;
#X connect 8 0 47 0 48.................J....fI...fB....XB...vC...vDB...7....Lg...fQ....;
#X connect 8 1 9 0 32.................K....TB...vB....k....TA....;
#X connect 10 0 11 0;
#X connect 10 0 12 0 32.................J....T4+++uB....U9+++2A....;
#X connect 11 0 1 0 32.................Y....fI...PF....XB...HY....;
#X connect 12 0 13 0;
#X connect 12 0 11 0 48......................bC.........2....39+++ea....t++++2F...f6++++;
#X connect 18 0 21 0 32.................J....3I...fB....dB...3A....;
#X connect 18 0 20 0 32.................Q....vL...PD....LC...HB....;
#X connect 18 0 22 0;
#X connect 19 0 1 0 64.................WC...TM...v0....UC...bM....GA...WC...vQ...v0....pF...bM...fpA...vC....;
#X connect 20 0 19 0;
#X connect 21 0 38 0;
#X connect 21 0 41 0;
#X connect 22 0 26 0;
#X connect 22 0 23 0 32.................I....r8+++eB....a++++KA....;
#X connect 24 0 18 0;
#X connect 25 0 1 0 32.................TB...Xm....k....1I...3J....;
#X connect 26 0 25 0;
#X connect 33 0 34 0;
#X connect 33 0 35 0 32.................H....zE....B....cA...fA....;
#X connect 34 0 39 0 32.................W.........vE.........zB....;
#X connect 34 1 42 0;
#X connect 34 2 37 0 32.................W....nF...vE....pA...zB....;
#X connect 36 0 33 0;
#X connect 37 0 1 0 32.................j....HK....I....xB...3C....;
#X connect 39 0 1 0 32.................j....rS....I....6D...3C....;
#X connect 41 0 36 0;
#X connect 42 0 1 0 32.................j....fO....I....3C...3C....;
#X connect 43 0 46 0;
#X connect 44 0 43 0;
#X connect 44 1 43 1;
#X connect 45 0 44 0;
#X connect 46 0 51 0;
#X connect 47 0 45 0;
#X connect 48 0 49 0;
#X connect 49 0 53 0;
#X connect 49 1 52 0;
#X connect 50 0 48 0;
#X connect 51 0 50 0;
#X connect 52 0 1 0;
#X connect 53 0 1 0;
#X connect 57 0 58 0;
#X connect 58 0 59 0;
#X connect 59 0 56 0 32.................J....nA...fB....Z....LA....;
#X connect 59 0 66 0;
#X connect 59 0 84 0 48.................J....fI...fB....XB...vC...vDB...7....Lg...fQ....;
#X connect 59 1 60 0 32.................K....TB...vB....k....TA....;
#X connect 62 0 63 0 32.................J....3I...fB....dB...3A....;
#X connect 62 0 64 0;
#X connect 62 0 136 0 32.................Q....vL...PD....LC...HB....;
#X connect 63 0 76 0;
#X connect 63 0 78 0;
#X connect 64 0 67 0;
#X connect 64 0 65 0 32.................I....r8+++eB....a++++KA....;
#X connect 66 0 62 0;
#X connect 67 0 93 0;
#X connect 71 0 72 0;
#X connect 71 0 73 0 32.................H....zE....B....cA...fA....;
#X connect 72 0 77 0 32.................W.........vE.........zB....;
#X connect 72 1 79 0;
#X connect 72 2 75 0 32.................W....nF...vE....pA...zB....;
#X connect 74 0 71 0;
#X connect 75 0 1 0;
#X connect 77 0 1 0;
#X connect 78 0 74 0;
#X connect 79 0 1 0;
#X connect 80 0 83 0;
#X connect 81 0 80 0;
#X connect 81 1 80 1;
#X connect 82 0 81 0;
#X connect 83 0 88 0;
#X connect 84 0 82 0;
#X connect 85 0 86 0;
#X connect 86 0 90 0;
#X connect 86 1 89 0;
#X connect 87 0 85 0;
#X connect 88 0 87 0;
#X connect 89 0 1 0;
#X connect 90 0 1 0;
#X connect 91 0 57 0;
#X connect 91 0 54 0 32.................K....DE...vB....QA....B....;
#X connect 91 0 55 0 32.................J....zG...fB....8A...bB....;
#X connect 92 0 1 0;
#X connect 93 0 1 0;
#X connect 99 0 100 0;
#X connect 100 0 101 0;
#X connect 101 0 98 0 32.................J....nA...fB....Z....LA....;
#X connect 101 0 108 0;
#X connect 101 0 126 0 48.................J....fI...fB....XB...vC...vDB...7....Lg...fQ....;
#X connect 101 1 102 0 32.................K....TB...vB....k....TA....;
#X connect 104 0 105 0 32.................J....3I...fB....dB...3A....;
#X connect 104 0 106 0;
#X connect 104 0 137 0 32.................Q....vL...PD....LC...HB....;
#X connect 105 0 118 0;
#X connect 105 0 120 0;
#X connect 106 0 109 0;
#X connect 106 0 107 0 32.................I....r8+++eB....a++++KA....;
#X connect 108 0 104 0;
#X connect 109 0 134 0;
#X connect 113 0 114 0;
#X connect 113 0 115 0 32.................H....zE....B....cA...fA....;
#X connect 114 0 119 0 32.................W.........vE.........zB....;
#X connect 114 1 121 0;
#X connect 114 2 117 0 32.................W....nF...vE....pA...zB....;
#X connect 116 0 113 0;
#X connect 120 0 116 0;
#X connect 122 0 125 0;
#X connect 123 0 122 0;
#X connect 123 1 122 1;
#X connect 124 0 123 0;
#X connect 125 0 130 0;
#X connect 126 0 124 0;
#X connect 127 0 128 0;
#X connect 128 0 132 0;
#X connect 128 1 131 0;
#X connect 129 0 127 0;
#X connect 130 0 129 0;
#X connect 133 0 1 0;
#X connect 134 0 1 0;
#X connect 135 0 99 0;
#X connect 135 0 96 0 32.................K....DE...vB....QA....B....;
#X connect 135 0 97 0 32.................J....zG...fB....8A...bB....;
#X connect 136 0 92 0;
#X connect 137 0 133 0;
